<?xml version="1.0" standalone="no"?>
<!DOCTYPE svg PUBLIC "-//W3C//DTD SVG 20010904//EN"
 "http://www.w3.org/TR/2001/REC-SVG-20010904/DTD/svg10.dtd">
<svg version="1.0" xmlns="http://www.w3.org/2000/svg"
 width="640.000000pt" height="640.000000pt" viewBox="0 0 640.000000 640.000000"
 preserveAspectRatio="xMidYMid meet">

<g transform="translate(0.000000,640.000000) scale(0.100000,-0.100000)"
fill="#000000" stroke="none">
<path d="M3180 5391 c0 -5 -8 -11 -17 -14 -10 -4 -38 -18 -63 -33 -25 -15 -60
-35 -77 -45 -102 -58 -141 -81 -194 -111 -13 -7 -26 -15 -29 -18 -3 -3 -23
-14 -45 -26 -52 -27 -89 -48 -95 -54 -3 -3 -16 -11 -29 -18 -37 -21 -87 -50
-126 -72 -19 -11 -51 -29 -70 -40 -39 -22 -89 -51 -126 -72 -13 -7 -26 -15
-29 -18 -3 -3 -18 -12 -35 -20 -16 -8 -41 -22 -55 -31 -14 -9 -42 -26 -62 -38
-21 -11 -54 -30 -73 -41 -19 -11 -51 -29 -70 -40 -19 -11 -51 -29 -70 -40 -39
-22 -89 -51 -126 -72 -13 -7 -26 -15 -29 -18 -4 -4 -29 -18 -115 -64 -11 -6
-22 -13 -25 -16 -3 -3 -16 -11 -29 -18 -13 -8 -39 -22 -57 -33 -19 -10 -49
-28 -68 -38 -18 -11 -44 -25 -57 -33 -13 -7 -26 -15 -29 -18 -3 -3 -23 -14
-45 -25 l-40 -21 -3 -1111 c-2 -1051 -1 -1111 15 -1116 10 -4 41 -20 68 -37
28 -17 57 -33 65 -37 8 -4 17 -9 20 -12 3 -3 16 -12 29 -19 37 -21 87 -50 126
-72 -205 117 509 -291 140 -80 19 -11 51 -29 70 -40 39 -22 89 -51 126 -72 13
-7 26 -15 29 -18 6 -6 43 -27 95 -54 22 -12 42 -23 45 -26 3 -3 16 -11 29 -18
54 -31 102 -58 194 -111 17 -10 56 -32 85 -50 29 -17 57 -31 62 -31 6 0 10 -3
10 -7 0 -5 10 -13 23 -19 42 -21 112 -59 117 -64 3 -3 16 -11 29 -18 13 -8 39
-22 57 -33 19 -10 49 -28 68 -38 18 -11 44 -25 57 -33 13 -7 26 -15 29 -18 6
-6 43 -27 95 -54 22 -12 42 -23 45 -26 3 -3 16 -11 29 -18 13 -8 39 -22 57
-33 19 -10 49 -28 68 -38 18 -11 38 -16 42 -11 5 4 26 18 47 29 20 12 52 30
71 40 18 11 44 25 57 33 13 7 26 15 29 18 3 3 23 14 45 26 52 27 89 48 95 54
3 3 16 11 29 18 37 21 87 50 126 72 19 11 51 29 70 40 39 22 89 51 126 72 13
7 26 15 29 18 3 3 23 14 45 26 52 27 89 48 95 54 3 3 16 11 29 18 53 30 92 53
194 111 17 10 52 30 77 45 25 15 53 29 63 33 9 3 17 8 17 12 0 4 16 13 35 21
19 8 35 17 35 20 0 3 16 12 35 20 19 8 35 17 35 21 0 4 8 9 18 12 9 4 37 18
62 33 25 15 60 35 78 45 101 58 140 81 193 111 13 7 26 15 29 18 5 5 75 43
117 64 l23 11 0 1106 0 1106 -27 14 c-16 8 -30 16 -33 19 -3 3 -16 11 -29 18
-13 8 -39 22 -57 33 -19 10 -49 28 -68 38 -18 11 -44 25 -57 33 -13 7 -26 15
-29 18 -6 6 -43 27 -95 54 -22 12 -42 23 -45 26 -3 3 -16 11 -29 18 -54 31
-102 58 -193 111 -18 10 -57 32 -86 50 -29 17 -57 31 -62 31 -6 0 -10 4 -10 9
0 5 -8 11 -17 14 -10 4 -38 18 -63 33 -25 15 -60 35 -77 45 -18 11 -48 27 -65
38 -18 10 -53 30 -78 45 -25 15 -53 29 -62 33 -10 3 -18 8 -18 12 0 4 -16 13
-35 21 -19 8 -35 17 -35 20 0 3 -16 12 -35 20 -19 8 -35 17 -35 21 0 4 -8 9
-17 12 -10 4 -38 18 -63 33 -25 15 -60 35 -77 45 -18 11 -49 28 -68 39 -19 11
-51 29 -70 40 -39 22 -89 51 -126 72 -13 7 -26 15 -29 18 -3 3 -18 12 -35 20
-16 8 -32 17 -35 20 -24 24 -80 39 -80 21z m73 -570 c19 -11 45 -25 58 -33 13
-7 26 -15 29 -18 6 -6 43 -27 95 -54 22 -12 42 -23 45 -26 3 -3 16 -11 29 -18
13 -8 39 -22 57 -33 19 -10 49 -28 68 -38 18 -11 44 -25 57 -33 13 -7 26 -15
29 -18 3 -3 14 -10 25 -16 86 -46 111 -60 115 -64 3 -3 16 -11 29 -18 37 -21
87 -50 126 -72 19 -11 51 -29 70 -40 39 -22 89 -51 126 -72 13 -7 26 -15 29
-18 6 -6 43 -27 95 -54 22 -12 42 -23 45 -26 3 -3 16 -11 29 -18 36 -21 87
-50 129 -73 20 -12 51 -29 67 -39 l30 -17 3 -354 c1 -195 0 -360 -3 -367 -5
-13 -7 -12 -126 56 -20 11 -47 26 -60 34 -13 7 -26 15 -29 18 -6 6 -43 27 -95
54 -22 12 -42 23 -45 26 -3 3 -16 11 -29 18 -37 21 -87 50 -126 72 -19 11 -51
29 -70 40 -39 22 -89 51 -126 72 -13 7 -26 15 -29 18 -6 6 -43 27 -95 54 -22
12 -42 23 -45 26 -3 3 -16 11 -29 18 -97 55 -150 85 -201 116 -25 15 -53 29
-62 33 -10 3 -18 8 -18 12 0 4 -16 13 -35 21 -19 8 -35 17 -35 20 0 3 -16 12
-35 20 -19 8 -35 17 -35 20 0 3 -16 12 -35 20 -19 8 -35 17 -35 21 0 23 -85 8
-110 -20 -3 -4 -18 -13 -35 -21 -16 -8 -32 -17 -35 -20 -3 -3 -16 -11 -29 -18
-37 -21 -87 -50 -126 -72 -88 -50 -112 -64 -139 -79 -16 -9 -28 -20 -28 -25 0
-6 20 -21 43 -34 24 -14 58 -33 75 -42 17 -10 42 -24 55 -32 13 -7 26 -15 29
-18 6 -6 43 -27 95 -54 22 -12 42 -23 45 -26 3 -3 16 -11 29 -18 13 -8 39 -22
57 -33 19 -10 49 -28 68 -38 18 -11 44 -25 57 -33 13 -7 26 -15 29 -18 6 -6
43 -27 95 -54 22 -12 42 -23 45 -26 6 -6 43 -27 95 -54 22 -12 42 -23 45 -26
3 -3 16 -11 29 -18 13 -8 39 -22 57 -33 19 -10 49 -28 68 -38 18 -11 44 -25
57 -33 13 -7 26 -15 29 -18 6 -6 43 -27 95 -54 22 -12 42 -23 45 -26 3 -3 16
-11 29 -18 54 -31 102 -58 194 -111 17 -10 56 -32 85 -50 29 -17 57 -31 62
-31 6 0 10 -3 10 -7 0 -5 10 -13 23 -19 42 -21 112 -59 117 -64 5 -5 13 -10
89 -52 20 -11 39 -25 43 -32 4 -6 8 -88 8 -182 l0 -171 -40 -27 c-22 -14 -44
-26 -50 -26 -5 0 -10 -4 -10 -9 0 -5 -8 -11 -17 -14 -10 -4 -38 -18 -63 -33
-25 -15 -60 -35 -77 -45 -102 -58 -141 -81 -194 -111 -13 -7 -26 -15 -29 -18
-3 -3 -23 -14 -45 -26 -52 -27 -89 -48 -95 -54 -3 -3 -16 -11 -29 -18 -13 -8
-39 -22 -57 -33 -19 -10 -49 -28 -68 -38 -18 -11 -44 -25 -57 -33 -13 -7 -26
-15 -29 -18 -3 -3 -23 -14 -45 -26 -52 -27 -89 -48 -95 -54 -3 -3 -23 -14 -45
-26 -52 -27 -89 -48 -95 -54 -3 -3 -16 -11 -29 -18 -13 -8 -39 -22 -57 -33
-19 -10 -49 -28 -68 -38 -18 -11 -44 -25 -57 -33 -13 -7 -26 -15 -29 -18 -24
-24 -80 -39 -80 -21 0 5 -8 11 -17 14 -10 4 -38 18 -63 33 -42 25 -68 40 -131
76 -13 7 -26 15 -29 18 -6 6 -43 27 -95 54 -22 12 -42 23 -45 26 -3 3 -16 11
-29 18 -37 21 -87 50 -126 72 -19 11 -51 29 -70 40 -39 22 -89 51 -126 72 -13
7 -26 15 -29 18 -6 6 -43 27 -95 54 -22 12 -42 23 -45 26 -3 3 -16 11 -29 18
-13 8 -39 22 -57 33 -19 10 -49 28 -68 38 -18 11 -44 25 -57 33 -13 7 -26 15
-29 18 -3 3 -18 12 -35 20 -16 8 -32 17 -35 20 -3 3 -18 12 -35 20 -16 8 -32
17 -35 20 -6 6 -37 24 -92 54 l-38 20 0 363 c0 256 3 363 11 363 10 0 68 -29
79 -40 6 -6 43 -27 95 -54 22 -12 42 -23 45 -26 3 -3 16 -11 29 -18 37 -21 87
-50 126 -72 19 -11 51 -29 70 -40 39 -22 89 -51 126 -72 13 -7 26 -15 29 -18
6 -6 43 -27 95 -54 22 -12 42 -23 45 -26 3 -3 16 -11 29 -18 37 -21 87 -50
126 -72 19 -11 51 -29 70 -40 39 -22 89 -51 126 -72 13 -7 26 -15 29 -18 6 -6
43 -27 95 -54 22 -12 42 -23 45 -26 3 -3 16 -11 29 -18 13 -8 38 -22 56 -32
18 -10 42 -24 53 -31 18 -11 27 -10 59 7 115 63 159 88 168 94 6 4 26 17 46
28 72 40 84 47 89 52 5 5 75 43 117 64 31 15 29 19 -14 43 -21 11 -55 30 -75
41 -75 43 -140 80 -199 114 -13 7 -26 15 -29 18 -6 6 -43 27 -95 54 -22 12
-42 23 -45 26 -3 3 -16 11 -29 18 -37 21 -87 50 -126 72 -19 11 -52 30 -72 41
-21 12 -49 29 -63 38 -14 9 -38 23 -55 31 -16 8 -32 17 -35 20 -3 3 -16 11
-29 18 -37 21 -87 50 -126 72 -19 11 -51 29 -70 40 -19 11 -51 29 -70 40 -19
11 -52 30 -72 41 -21 12 -49 29 -63 38 -14 9 -38 23 -55 31 -16 8 -32 17 -35
20 -3 3 -16 11 -29 18 -37 21 -87 50 -126 72 -19 11 -51 29 -70 40 -39 22 -89
51 -126 72 -13 7 -26 15 -29 18 -9 9 -65 41 -103 58 -21 9 -40 26 -43 37 -2
11 -3 96 -2 189 3 157 4 170 23 180 11 6 22 13 25 16 3 3 16 11 29 18 13 8 39
22 57 33 19 10 49 28 68 38 18 11 44 25 57 33 13 7 26 15 29 18 3 3 23 14 45
26 52 27 89 48 95 54 3 3 16 11 29 18 53 30 92 53 194 111 17 10 52 30 77 45
25 15 53 29 63 33 9 3 17 8 17 12 0 4 16 13 35 21 19 8 35 17 35 20 0 3 16 12
35 20 19 8 35 17 35 21 0 4 8 9 18 12 9 4 37 18 62 33 25 15 60 35 78 45 101
58 140 81 193 111 13 7 26 15 29 18 13 13 87 48 102 49 10 1 33 -8 51 -18z"/>
</g>
</svg>
